<svg width="1615" height="579" viewBox="0 0 1615 579" fill="none" xmlns="http://www.w3.org/2000/svg">
<path d="M461.996 154.339H439.01V0H461.996V154.339Z" fill="white"/>
<path d="M576.858 154.339H556.721L519.885 57.1993C520.867 61.933 521.358 65.6477 521.358 68.3432V154.339H498.962V0H519.099L555.935 95.1677C554.953 90.434 554.462 86.7193 554.462 84.0237V0H576.858V154.339Z" fill="white"/>
<path d="M680.326 20.4142H654.983V154.339H632.095V20.4142H606.752V0H680.326V20.4142Z" fill="white"/>
<path d="M773.971 154.339H710.22V0H773.382V20.4142H733.206V65.4833H767.783V85.503H733.206V133.925H773.971V154.339Z" fill="white"/>
<path d="M886.575 154.339H862.607L837.263 82.6431C837.263 82.6431 837.263 78.0079 837.263 68.7377H859.856V19.8225H830.878V154.339H807.892V0H868.893C878.127 0 882.744 4.73373 882.744 14.2012V70.3156C882.744 76.8245 880.55 81.0323 876.162 82.9389C873.805 83.9251 868.828 84.4182 861.231 84.4182L886.575 154.339Z" fill="white"/>
<path d="M1001.67 154.339H978.68V0H1001.67V154.339Z" fill="white"/>
<path d="M1062.01 154.339H1039.02V0H1062.01V154.339Z" fill="white"/>
<path d="M1165.77 20.4142H1140.43V154.339H1117.54V20.4142H1092.2V0H1165.77V20.4142Z" fill="white"/>
<path d="M471.819 301.738C471.819 306.439 469.478 308.789 464.795 308.789H440.827C436.276 308.789 434 306.439 434 301.738V238.72C434 233.986 436.276 231.619 440.827 231.619H464.795C469.478 231.619 471.819 233.986 471.819 238.72V256.767H460.375V241.531H445.493V298.878H460.375V282.655H471.819V301.738Z" fill="white"/>
<path d="M528.366 301.738C528.366 306.439 526.008 308.789 521.293 308.789H496.883C492.234 308.789 489.909 306.439 489.909 301.738V231.619H501.402V298.878H516.873V231.619H528.366V301.738Z" fill="white"/>
<path d="M576.907 308.789H546.702V231.619H558.195V298.483H576.907V308.789Z" fill="white"/>
<path d="M626.186 241.826H613.514V308.789H602.07V241.826H589.398V231.619H626.186V241.826Z" fill="white"/>
<path d="M679.59 301.738C679.59 306.439 677.232 308.789 672.517 308.789H648.107C643.457 308.789 641.132 306.439 641.132 301.738V231.619H652.625V298.878H668.097V231.619H679.59V301.738Z" fill="white"/>
<path d="M737.267 308.789H725.283L712.611 272.941C712.611 272.941 712.611 270.623 712.611 265.988H723.907V241.531H709.418V308.789H697.925V231.619H728.426C733.043 231.619 735.351 233.986 735.351 238.72V266.777C735.351 270.031 734.254 272.135 732.06 273.089C730.882 273.582 728.393 273.828 724.595 273.828L737.267 308.789Z" fill="white"/>
<path d="M792.291 308.789H780.897L778.588 294.144H764.197L761.889 308.789H750.543V308.592L765.425 231.521H777.508L792.291 308.789ZM776.967 284.233L771.368 249.42L765.72 284.233H776.967Z" fill="white"/>
<path d="M837.984 308.789H807.778V231.619H819.271V298.483H837.984V308.789Z" fill="white"/>
<path d="M531.543 487H509.441V410.866C509.441 406.855 509.899 401.267 510.816 394.101L490.974 472.897H479.284L459.343 394.101C460.26 401.398 460.719 406.987 460.719 410.866V487H438.617V332.661H460.326L484.49 417.966C484.752 418.887 484.949 421.221 485.08 424.968C485.08 423.325 485.276 420.991 485.669 417.966L509.834 332.661H531.543V487Z" fill="white"/>
<path d="M631.867 487H568.116V332.661H631.278V353.075H591.102V398.144H625.679V418.164H591.102V466.586H631.867V487Z" fill="white"/>
<path d="M729.54 487H665.788V332.661H728.95V353.075H688.774V398.144H723.351V418.164H688.774V466.586H729.54V487Z" fill="white"/>
<path d="M830.257 353.075H804.914V487H782.026V353.075H756.683V332.661H830.257V353.075Z" fill="white"/>
<path d="M980.451 457.72C980.451 473.28 973.798 481.06 960.492 481.06H893.254C879.853 481.06 873.153 473.28 873.153 457.72V249.127C873.153 233.458 879.712 225.624 892.829 225.624H959.925C973.232 225.624 979.885 233.458 979.885 249.127V303.152H947.327V258.431H905.711V335.306H960.492C973.798 335.306 980.451 342.977 980.451 358.32V457.72ZM948.035 448.253V367.786H905.711V448.253H948.035Z" fill="#E05E12"/>
<path d="M1036.08 481.06H1004.23V441.561H1036.08V481.06Z" fill="#E05E12"/>
<path d="M1169 457.72C1169 473.28 1162.35 481.06 1149.04 481.06H1079.96C1066.85 481.06 1060.29 473.28 1060.29 457.72V249.127C1060.29 233.458 1066.99 225.624 1080.39 225.624H1149.04C1162.35 225.624 1169 233.458 1169 249.127V457.72ZM1136.58 448.253V258.431H1092.84V448.253H1136.58Z" fill="#E05E12"/>
<rect y="548" width="401" height="4" fill="url(#paint0_linear_213_3)"/>
<rect x="1214" y="548" width="401" height="4" fill="url(#paint1_linear_213_3)"/>
<path d="M469.793 531.65V566H467.543V536.35L454.343 566H452.543L439.293 536.35V566H437.043V531.65H439.443L453.443 563.05L467.443 531.65H469.793ZM513.059 532.8V547.45H527.059V549.35H513.059V564.1H528.559V566H510.809V530.9H528.559V532.8H513.059ZM570.37 532.8V547.45H584.37V549.35H570.37V564.1H585.87V566H568.12V530.9H585.87V532.8H570.37ZM644.83 530.9V532.8H634.83V566H632.58V532.8H622.58V530.9H644.83ZM749.197 530.9V532.8H739.197V566H736.947V532.8H726.947V530.9H749.197ZM812.303 530.9V566H810.053V549H789.553V566H787.303V530.9H789.553V547.1H810.053V530.9H812.303ZM855.555 532.8V547.45H869.555V549.35H855.555V564.1H871.055V566H853.305V530.9H871.055V532.8H855.555ZM976.877 530.9V532.8H966.877V566H964.627V532.8H954.627V530.9H976.877ZM1017.23 532.8V547.45H1031.23V549.35H1017.23V564.1H1032.73V566H1014.98V530.9H1032.73V532.8H1017.23ZM1092.19 557H1075.54L1072.19 566H1069.74L1082.64 531.7H1085.14L1097.99 566H1095.54L1092.19 557ZM1091.49 555.1L1083.89 534.65L1076.24 555.1H1091.49ZM1169.14 531.65V566H1166.89V536.35L1153.69 566H1151.89L1138.64 536.35V566H1136.39V531.65H1138.79L1152.79 563.05L1166.79 531.65H1169.14Z" fill="#D9D9D9"/>
<defs>
<linearGradient id="paint0_linear_213_3" x1="401" y1="548" x2="0" y2="548" gradientUnits="userSpaceOnUse">
<stop stop-color="#E05E12"/>
<stop offset="1" stop-color="#E05E12" stop-opacity="0"/>
</linearGradient>
<linearGradient id="paint1_linear_213_3" x1="1214" y1="548" x2="1615" y2="550" gradientUnits="userSpaceOnUse">
<stop stop-color="#E05E12"/>
<stop offset="1" stop-color="#E05E12" stop-opacity="0"/>
</linearGradient>
</defs>
</svg>
