<svg width="26" height="26" viewBox="0 0 26 26" fill="none" xmlns="http://www.w3.org/2000/svg">
<mask id="mask0_221_4" style="mask-type:luminance" maskUnits="userSpaceOnUse" x="0" y="0" width="26" height="26">
<path d="M26 12.9996C26 20.1792 20.1794 25.9998 12.9998 25.9998C5.82054 25.9998 0 20.1792 0 12.9996C0 5.82061 5.82054 7.43866e-05 12.9998 7.43866e-05C20.1794 7.43866e-05 26 5.82061 26 12.9996Z" fill="white"/>
</mask>
<g mask="url(#mask0_221_4)">
<path d="M26 12.9996C26 20.1792 20.1794 25.9998 12.9998 25.9998C5.82054 25.9998 0 20.1792 0 12.9996C0 5.82061 5.82054 7.43866e-05 12.9998 7.43866e-05C20.1794 7.43866e-05 26 5.82061 26 12.9996Z" fill="#D9D9D9"/>
</g>
<g style="mix-blend-mode:difference">
<path d="M10.0425 23H13.9686V13.4193H16.7078L17 10.2114H13.9686C13.9686 10.2114 13.9686 9.01339 13.9686 8.38456C13.9686 7.62818 14.1247 7.32893 14.8751 7.32893C15.479 7.32893 17 7.32893 17 7.32893V4C17 4 14.7594 4 14.2814 4C11.3597 4 10.0425 5.25387 10.0425 7.65404C10.0425 9.74427 10.0425 10.2114 10.0425 10.2114H8V13.4597H10.0425V23Z" fill="#D9D9D9"/>
</g>
</svg>
