<svg width="145" height="107" viewBox="0 0 145 107" fill="none" xmlns="http://www.w3.org/2000/svg">
<path d="M25.5117 41H21.627V15.0186H25.5117V41ZM44.9243 41H41.5209L35.2954 24.6475C35.4614 25.4443 35.5444 26.0697 35.5444 26.5234V41H31.7592V15.0186H35.1625L41.3881 31.0391C41.2221 30.2422 41.1391 29.6169 41.1391 29.1631V15.0186H44.9243V41ZM62.411 18.4551H58.1278V41H54.2596V18.4551H49.9764V15.0186H62.411V18.4551ZM78.2376 41H67.4632V15.0186H78.138V18.4551H71.348V26.042H77.1917V29.4121H71.348V37.5635H78.2376V41ZM97.2683 41H93.2175L88.9343 28.9307C88.9343 28.9307 88.9343 28.1504 88.9343 26.5898H92.7527V18.3555H87.8552V41H83.9705V15.0186H94.28C95.8406 15.0186 96.6209 15.8154 96.6209 17.4092V26.8555C96.6209 27.9512 96.2501 28.6595 95.5086 28.9805C95.1101 29.1465 94.269 29.2295 92.9851 29.2295L97.2683 41ZM116.719 41H112.835V15.0186H116.719V41ZM126.918 41H123.033V15.0186H126.918V41ZM144.455 18.4551H140.171V41H136.303V18.4551H132.02V15.0186H144.455V18.4551Z" fill="white"/>
<path d="M27.1719 65.813C27.1719 66.6043 26.7762 67 25.9849 67H21.9341C21.1649 67 20.7803 66.6043 20.7803 65.813V55.2046C20.7803 54.4077 21.1649 54.0093 21.9341 54.0093H25.9849C26.7762 54.0093 27.1719 54.4077 27.1719 55.2046V58.2427H25.2378V55.6777H22.7227V65.3315H25.2378V62.6006H27.1719V65.813ZM36.7287 65.813C36.7287 66.6043 36.3303 67 35.5334 67H31.4079C30.6221 67 30.2292 66.6043 30.2292 65.813V54.0093H32.1716V65.3315H34.7863V54.0093H36.7287V65.813ZM44.9326 67H39.8276V54.0093H41.77V65.2651H44.9326V67ZM53.2609 55.7275H51.1193V67H49.1852V55.7275H47.0436V54.0093H53.2609V55.7275ZM62.2865 65.813C62.2865 66.6043 61.8881 67 61.0912 67H56.9657C56.1799 67 55.787 66.6043 55.787 65.813V54.0093H57.7294V65.3315H60.3441V54.0093H62.2865V65.813ZM72.0343 67H70.0089L67.8673 60.9653C67.8673 60.9653 67.8673 60.5752 67.8673 59.7949H69.7765V55.6777H67.3277V67H65.3854V54.0093H70.5401C71.3204 54.0093 71.7105 54.4077 71.7105 55.2046V59.9277C71.7105 60.4756 71.5252 60.8298 71.1544 60.9902C70.9552 61.0732 70.5346 61.1147 69.8927 61.1147L72.0343 67ZM81.3338 67H79.408L79.0179 64.5347H76.5858L76.1956 67H74.2781V66.9668L76.7933 53.9927H78.8353L81.3338 67ZM78.744 62.8662L77.7977 57.0059L76.8431 62.8662H78.744ZM89.0562 67H83.9512V54.0093H85.8936V65.2651H89.0562V67Z" fill="white"/>
<path d="M37.2656 97H33.5303V84.1836C33.5303 83.5085 33.6077 82.5677 33.7627 81.3613L30.4092 94.626H28.4336L25.0635 81.3613C25.2184 82.5898 25.2959 83.5306 25.2959 84.1836V97H21.5605V71.0186H25.2295L29.3135 85.3789C29.3577 85.5339 29.391 85.9268 29.4131 86.5576C29.4131 86.2809 29.4463 85.888 29.5127 85.3789L33.5967 71.0186H37.2656V97ZM54.2211 97H43.4467V71.0186H54.1215V74.4551H47.3315V82.042H53.1752V85.4121H47.3315V93.5635H54.2211V97ZM70.7284 97H59.954V71.0186H70.6288V74.4551H63.8387V82.042H69.6825V85.4121H63.8387V93.5635H70.7284V97ZM87.7503 74.4551H83.4671V97H79.5989V74.4551H75.3157V71.0186H87.7503V74.4551Z" fill="white"/>
<path d="M113.134 92.0709C113.134 94.6903 112.01 96 109.761 96H98.3971C96.1324 96 95 94.6903 95 92.0709V56.9565C95 54.3188 96.1085 53 98.3254 53H109.665C111.914 53 113.038 54.3188 113.038 56.9565V66.0511H107.536V58.5227H100.502V71.4639H109.761C112.01 71.4639 113.134 72.7553 113.134 75.338V92.0709ZM107.656 90.4773V76.9316H100.502V90.4773H107.656Z" fill="#E05E12"/>
<path d="M122.536 96H117.153V89.3508H122.536V96Z" fill="#E05E12"/>
<path d="M145 92.0709C145 94.6903 143.876 96 141.627 96H129.952C127.735 96 126.627 94.6903 126.627 92.0709V56.9565C126.627 54.3188 127.759 53 130.024 53H141.627C143.876 53 145 54.3188 145 56.9565V92.0709ZM139.522 90.4773V58.5227H132.129V90.4773H139.522Z" fill="#E05E12"/>
<rect width="6" height="107" fill="#E05E12"/>
</svg>
