<svg width="26" height="26" viewBox="0 0 26 26" fill="none" xmlns="http://www.w3.org/2000/svg">
<path d="M26 12.9996C26 20.1792 20.1794 25.9998 12.9998 25.9998C5.82054 25.9998 0 20.1792 0 12.9996C0 5.82061 5.82054 7.43866e-05 12.9998 7.43866e-05C20.1794 7.43866e-05 26 5.82061 26 12.9996Z" fill="#D9D9D9"/>
<g style="mix-blend-mode:difference">
<path d="M7.4217 18.8064H10.002V10.4462H7.4217V18.8064Z" fill="#D9D9D9"/>
</g>
<g style="mix-blend-mode:difference">
<path d="M8.7117 9.31087C9.59561 9.31087 10.3117 8.64003 10.3117 7.81413C10.3117 6.98766 9.59561 6.3177 8.7117 6.3177C7.8281 6.3177 7.11206 6.98766 7.11206 7.81413C7.11206 8.64003 7.8281 9.31087 8.7117 9.31087Z" fill="#D9D9D9"/>
</g>
<g style="mix-blend-mode:difference">
<path d="M14.3364 14.39C14.3364 13.2073 14.8992 12.5026 15.9755 12.5026C16.9644 12.5026 17.4397 13.1794 17.4397 14.39C17.4397 15.6019 17.4397 18.8064 17.4397 18.8064H20.1169C20.1169 18.8064 20.1169 15.7333 20.1169 13.4795C20.1169 11.2264 18.7976 10.1366 16.9553 10.1366C15.1122 10.1366 14.3364 11.5266 14.3364 11.5266V10.3936H11.7566V18.8064H14.3364C14.3364 18.8064 14.3364 15.6859 14.3364 14.39Z" fill="#D9D9D9"/>
</g>
</svg>
