<svg width="364" height="243" viewBox="0 0 364 243" fill="none" xmlns="http://www.w3.org/2000/svg">
<path d="M72.0653 50.0731H64.6222V0H72.0653V50.0731Z" fill="white"/>
<path d="M109.259 50.0731H102.738L90.8103 18.5575C91.1284 20.0932 91.2874 21.2984 91.2874 22.173V50.0731H84.0352V0H90.5558L102.484 30.8758C102.166 29.34 102.007 28.1348 102.007 27.2603V0H109.259V50.0731Z" fill="white"/>
<path d="M142.763 6.62309H134.556V50.0731H127.145V6.62309H118.939V0H142.763V6.62309Z" fill="white"/>
<path d="M173.086 50.0731H152.443V0H172.895V6.62309H159.886V21.2451H171.082V27.7402H159.886V43.45H173.086V50.0731Z" fill="white"/>
<path d="M209.548 50.0731H201.787L193.58 26.8123C193.58 26.8123 193.58 25.3085 193.58 22.3009H200.896V6.43112H191.513V50.0731H184.07V0H203.823C206.813 0 208.308 1.53579 208.308 4.60737V22.8129C208.308 24.9246 207.597 26.2897 206.176 26.9083C205.413 27.2283 203.801 27.3882 201.342 27.3882L209.548 50.0731Z" fill="white"/>
<path d="M246.815 50.0731H239.372V0H246.815V50.0731Z" fill="white"/>
<path d="M266.356 50.0731H258.913V0H266.356V50.0731Z" fill="white"/>
<path d="M299.955 6.62309H291.749V50.0731H284.337V6.62309H276.131V0H299.955V6.62309Z" fill="white"/>
<path d="M75.2461 97.8944C75.2461 99.4195 74.488 100.182 72.9718 100.182H65.2107C63.7369 100.182 63 99.4195 63 97.8944V77.4492C63 75.9134 63.7369 75.1455 65.2107 75.1455H72.9718C74.488 75.1455 75.2461 75.9134 75.2461 77.4492V83.3044H71.5404V78.361H66.7215V96.9665H71.5404V91.7032H75.2461V97.8944Z" fill="white"/>
<path d="M93.5566 97.8944C93.5566 99.4195 92.7932 100.182 91.2664 100.182H83.3622C81.8566 100.182 81.1038 99.4195 81.1038 97.8944V75.1455H84.8253V96.9665H89.8351V75.1455H93.5566V97.8944Z" fill="white"/>
<path d="M109.275 100.182H99.4939V75.1455H103.215V96.8385H109.275V100.182Z" fill="white"/>
<path d="M125.232 78.457H121.128V100.182H117.423V78.457H113.32V75.1455H125.232V78.457Z" fill="white"/>
<path d="M142.524 97.8944C142.524 99.4195 141.761 100.182 140.234 100.182H132.33C130.824 100.182 130.071 99.4195 130.071 97.8944V75.1455H133.793V96.9665H138.803V75.1455H142.524V97.8944Z" fill="white"/>
<path d="M161.201 100.182H157.32L153.217 88.5516C153.217 88.5516 153.217 87.7997 153.217 86.2959H156.875V78.361H152.183V100.182H148.462V75.1455H158.338C159.833 75.1455 160.58 75.9134 160.58 77.4492V86.5519C160.58 87.6078 160.225 88.2903 159.515 88.5996C159.133 88.7596 158.327 88.8396 157.097 88.8396L161.201 100.182Z" fill="white"/>
<path d="M179.018 100.182H175.328L174.581 95.4307H169.921L169.174 100.182H165.5V100.118L170.319 75.1135H174.231L179.018 100.182ZM174.056 92.2151L172.243 80.9207L170.414 92.2151H174.056Z" fill="white"/>
<path d="M193.814 100.182H184.033V75.1455H187.755V96.8385H193.814V100.182Z" fill="white"/>
<path d="M94.5853 158H87.4285V133.299C87.4285 131.998 87.5769 130.185 87.8738 127.86L81.4486 153.425H77.6635L71.2064 127.86C71.5033 130.228 71.6518 132.041 71.6518 133.299V158H64.495V107.927H71.5245L79.3493 135.603C79.4341 135.902 79.4977 136.659 79.5401 137.875C79.5401 137.342 79.6037 136.584 79.731 135.603L87.5557 107.927H94.5853V158Z" fill="white"/>
<path d="M127.071 158H106.428V107.927H126.88V114.55H113.871V129.172H125.067V135.667H113.871V151.377H127.071V158Z" fill="white"/>
<path d="M158.699 158H138.055V107.927H158.508V114.55H145.498V129.172H156.695V135.667H145.498V151.377H158.699V158Z" fill="white"/>
<path d="M191.312 114.55H183.105V158H175.694V114.55H167.488V107.927H191.312V114.55Z" fill="white"/>
<path d="M239.946 148.5C239.946 153.549 237.792 156.073 233.483 156.073H211.711C207.372 156.073 205.202 153.549 205.202 148.5V80.8256C205.202 75.7421 207.326 73.2003 211.573 73.2003H233.3C237.608 73.2003 239.763 75.7421 239.763 80.8256V98.3533H229.22V83.844H215.744V108.785H233.483C237.792 108.785 239.946 111.274 239.946 116.252V148.5ZM229.449 145.429V119.323H215.744V145.429H229.449Z" fill="#E05E12"/>
<path d="M257.96 156.073H247.646V143.258H257.96V156.073Z" fill="#E05E12"/>
<path d="M301 148.5C301 153.549 298.846 156.073 294.537 156.073H272.169C267.921 156.073 265.798 153.549 265.798 148.5V80.8256C265.798 75.7421 267.967 73.2003 272.306 73.2003H294.537C298.846 73.2003 301 75.7421 301 80.8256V148.5ZM290.503 145.429V83.844H276.34V145.429H290.503Z" fill="#E05E12"/>
<rect y="188" width="107" height="1" fill="url(#paint0_linear_215_4)"/>
<path d="M257 188H364V189H257V188Z" fill="url(#paint1_linear_215_4)"/>
<path d="M127.019 184.695V195H126.344V186.105L122.384 195H121.844L117.869 186.105V195H117.194V184.695H117.914L122.114 194.115L126.314 184.695H127.019ZM139.999 185.04V189.435H144.199V190.005H139.999V194.43H144.649V195H139.324V184.47H144.649V185.04H139.999ZM157.192 185.04V189.435H161.392V190.005H157.192V194.43H161.842V195H156.517V184.47H161.842V185.04H157.192ZM179.53 184.47V185.04H176.53V195H175.855V185.04H172.855V184.47H179.53ZM210.84 184.47V185.04H207.84V195H207.165V185.04H204.165V184.47H210.84ZM229.772 184.47V195H229.097V189.9H222.947V195H222.272V184.47H222.947V189.33H229.097V184.47H229.772ZM242.748 185.04V189.435H246.948V190.005H242.748V194.43H247.398V195H242.073V184.47H247.398V185.04H242.748ZM156.148 207.47V208.04H153.148V218H152.473V208.04H149.473V207.47H156.148ZM168.255 208.04V212.435H172.455V213.005H168.255V217.43H172.905V218H167.58V207.47H172.905V208.04H168.255ZM190.743 215.3H185.748L184.743 218H184.008L187.878 207.71H188.628L192.483 218H191.748L190.743 215.3ZM190.533 214.73L188.253 208.595L185.958 214.73H190.533ZM213.827 207.695V218H213.152V209.105L209.192 218H208.652L204.677 209.105V218H204.002V207.695H204.722L208.922 217.115L213.122 207.695H213.827Z" fill="#D9D9D9"/>
<defs>
<linearGradient id="paint0_linear_215_4" x1="107" y1="188" x2="0" y2="188" gradientUnits="userSpaceOnUse">
<stop stop-color="#E05E12"/>
<stop offset="1" stop-color="#E05E12" stop-opacity="0"/>
</linearGradient>
<linearGradient id="paint1_linear_215_4" x1="257" y1="188" x2="364" y2="188.57" gradientUnits="userSpaceOnUse">
<stop stop-color="#E05E12"/>
<stop offset="1" stop-color="#E05E12" stop-opacity="0"/>
</linearGradient>
</defs>
</svg>
