<svg width="199" height="109" viewBox="0 0 199 109" fill="none" xmlns="http://www.w3.org/2000/svg">
<rect x="193" width="6" height="107" fill="#E05E12"/>
<path d="M51.6592 32.626C51.6592 34.2087 50.8734 35 49.3018 35H40.8682C39.3298 35 38.5605 34.2087 38.5605 32.626V11.4092C38.5605 9.81543 39.3298 9.01855 40.8682 9.01855H49.3018C50.8734 9.01855 51.6592 9.81543 51.6592 11.4092V32.626ZM47.7744 31.6631V12.3555H42.4453V31.6631H47.7744ZM68.0947 35H64.0439L59.7607 22.9307C59.7607 22.9307 59.7607 22.1504 59.7607 20.5898H63.5791V12.3555H58.6816V35H54.7969V9.01855H65.1064C66.667 9.01855 67.4473 9.81543 67.4473 11.4092V20.8555C67.4473 21.9512 67.0765 22.6595 66.335 22.9805C65.9365 23.1465 65.0954 23.2295 63.8115 23.2295L68.0947 35ZM83.3184 32.626C83.3184 34.2087 82.527 35 80.9443 35H72.7764C71.238 35 70.4688 34.2087 70.4688 32.626V11.4092C70.4688 9.81543 71.2546 9.01855 72.8262 9.01855H80.9443C82.527 9.01855 83.3184 9.81543 83.3184 11.4092V16.9541H79.417V12.3555H74.3535V31.6631H79.417V24.3916H76.5283V21.0879H83.3184V32.626ZM99.6045 35H95.7529L94.9727 30.0693H90.1084L89.3281 35H85.4932V34.9336L90.5234 8.98535H94.6074L99.6045 35ZM94.4248 26.7324L92.5322 15.0117L90.623 26.7324H94.4248ZM114.944 35H111.541L105.315 18.6475C105.481 19.4443 105.564 20.0697 105.564 20.5234V35H101.779V9.01855H105.183L111.408 25.0391C111.242 24.2422 111.159 23.6169 111.159 23.1631V9.01855H114.944V35ZM122.033 35H118.148V9.01855H122.033V35ZM137.672 32.626C137.672 34.2087 136.886 35 135.314 35H127.495C125.935 35 125.154 34.2087 125.154 32.626V26.4336H129.039V31.7295H133.787V26.6328L126.001 19.2617C125.437 18.7194 125.154 18.0277 125.154 17.1865V11.4092C125.154 9.81543 125.935 9.01855 127.495 9.01855H135.314C136.886 9.01855 137.672 9.80436 137.672 11.376V17.1865H133.787V12.2891H129.039V16.9873L136.825 24.3252C137.39 24.8564 137.672 25.5592 137.672 26.4336V32.626ZM144.711 35H140.826V9.01855H144.711V35ZM161.063 35H157.66L151.435 18.6475C151.601 19.4443 151.684 20.0697 151.684 20.5234V35H147.898V9.01855H151.302L157.527 25.0391C157.361 24.2422 157.278 23.6169 157.278 23.1631V9.01855H161.063V35ZM177.051 32.626C177.051 34.2087 176.259 35 174.677 35H166.509C164.97 35 164.201 34.2087 164.201 32.626V11.4092C164.201 9.81543 164.987 9.01855 166.559 9.01855H174.677C176.259 9.01855 177.051 9.81543 177.051 11.4092V16.9541H173.149V12.3555H168.086V31.6631H173.149V24.3916H170.261V21.0879H177.051V32.626Z" fill="white"/>
<path d="M62.3438 65.626C62.3438 67.2087 61.5524 68 59.9697 68H51.8682C50.3298 68 49.5605 67.2087 49.5605 65.626V44.4092C49.5605 42.8154 50.3298 42.0186 51.8682 42.0186H59.9697C61.5524 42.0186 62.3438 42.8154 62.3438 44.4092V50.4854H58.4756V45.3555H53.4453V64.6631H58.4756V59.2012H62.3438V65.626ZM78.4971 65.626C78.4971 67.2087 77.7113 68 76.1396 68H67.7061C66.1676 68 65.3984 67.2087 65.3984 65.626V44.4092C65.3984 42.8154 66.1676 42.0186 67.7061 42.0186H76.1396C77.7113 42.0186 78.4971 42.8154 78.4971 44.4092V65.626ZM74.6123 64.6631V45.3555H69.2832V64.6631H74.6123ZM97.3398 68H93.6045V55.1836C93.6045 54.5085 93.682 53.5677 93.8369 52.3613L90.4834 65.626H88.5078L85.1377 52.3613C85.2926 53.5898 85.3701 54.5306 85.3701 55.1836V68H81.6348V42.0186H85.3037L89.3877 56.3789C89.432 56.5339 89.4652 56.9268 89.4873 57.5576C89.4873 57.2809 89.5205 56.888 89.5869 56.3789L93.6709 42.0186H97.3398V68ZM116.166 68H112.431V55.1836C112.431 54.5085 112.508 53.5677 112.663 52.3613L109.31 65.626H107.334L103.964 52.3613C104.119 53.5898 104.196 54.5306 104.196 55.1836V68H100.461V42.0186H104.13L108.214 56.3789C108.258 56.5339 108.291 56.9268 108.313 57.5576C108.313 57.2809 108.347 56.888 108.413 56.3789L112.497 42.0186H116.166V68ZM123.238 68H119.354V42.0186H123.238V68ZM137.715 45.4551H133.432V68H129.563V45.4551H125.28V42.0186H137.715V45.4551ZM150.996 45.4551H146.713V68H142.845V45.4551H138.562V42.0186H150.996V45.4551ZM163.763 68H152.988V42.0186H163.663V45.4551H156.873V53.042H162.717V56.4121H156.873V64.5635H163.763V68ZM177.21 68H166.436V42.0186H177.11V45.4551H170.32V53.042H176.164V56.4121H170.32V64.5635H177.21V68Z" fill="white"/>
<path d="M14.3438 99.626C14.3438 101.209 13.5524 102 11.9697 102H3.86816C2.32975 102 1.56055 101.209 1.56055 99.626V78.4092C1.56055 76.8154 2.32975 76.0186 3.86816 76.0186H11.9697C13.5524 76.0186 14.3438 76.8154 14.3438 78.4092V84.4854H10.4756V79.3555H5.44531V98.6631H10.4756V93.2012H14.3438V99.626ZM30.4971 99.626C30.4971 101.209 29.7113 102 28.1396 102H19.7061C18.1676 102 17.3984 101.209 17.3984 99.626V78.4092C17.3984 76.8154 18.1676 76.0186 19.7061 76.0186H28.1396C29.7113 76.0186 30.4971 76.8154 30.4971 78.4092V99.626ZM26.6123 98.6631V79.3555H21.2832V98.6631H26.6123ZM46.7334 99.626C46.7334 101.209 45.9476 102 44.376 102H35.9424C34.404 102 33.6348 101.209 33.6348 99.626V78.4092C33.6348 76.8154 34.404 76.0186 35.9424 76.0186H44.376C45.9476 76.0186 46.7334 76.8154 46.7334 78.4092V99.626ZM42.8486 98.6631V79.3555H37.5195V98.6631H42.8486ZM63.1689 102H59.1182L54.835 89.9307C54.835 89.9307 54.835 89.1504 54.835 87.5898H58.6533V79.3555H53.7559V102H49.8711V76.0186H60.1807C61.7412 76.0186 62.5215 76.8154 62.5215 78.4092V87.8555C62.5215 88.9512 62.1507 89.6595 61.4092 89.9805C61.0107 90.1465 60.1696 90.2295 58.8857 90.2295L63.1689 102ZM78.4922 97.1025C78.4922 98.6299 78.0384 99.8307 77.1309 100.705C76.2233 101.568 75.0003 102 73.4619 102H65.543V76.0186H73.4619C75.0003 76.0186 76.2233 76.4613 77.1309 77.3467C78.0384 78.221 78.4922 79.4219 78.4922 80.9492V97.1025ZM74.5908 96.4551V81.5303C74.5908 80.0804 73.8327 79.3555 72.3164 79.3555H69.4277V98.6631H72.2168C73.7995 98.6631 74.5908 97.9271 74.5908 96.4551ZM85.4648 102H81.5801V76.0186H85.4648V102ZM101.817 102H98.4141L92.1885 85.6475C92.3545 86.4443 92.4375 87.0697 92.4375 87.5234V102H88.6523V76.0186H92.0557L98.2812 92.0391C98.1152 91.2422 98.0322 90.6169 98.0322 90.1631V76.0186H101.817V102ZM118.12 102H114.269L113.488 97.0693H108.624L107.844 102H104.009V101.934L109.039 75.9854H113.123L118.12 102ZM112.94 93.7324L111.048 82.0117L109.139 93.7324H112.94ZM131.584 79.4551H127.301V102H123.433V79.4551H119.149V76.0186H131.584V79.4551ZM146.675 99.626C146.675 101.209 145.889 102 144.317 102H135.884C134.345 102 133.576 101.209 133.576 99.626V78.4092C133.576 76.8154 134.345 76.0186 135.884 76.0186H144.317C145.889 76.0186 146.675 76.8154 146.675 78.4092V99.626ZM142.79 98.6631V79.3555H137.461V98.6631H142.79ZM163.11 102H159.06L154.776 89.9307C154.776 89.9307 154.776 89.1504 154.776 87.5898H158.595V79.3555H153.697V102H149.812V76.0186H160.122C161.683 76.0186 162.463 76.8154 162.463 78.4092V87.8555C162.463 88.9512 162.092 89.6595 161.351 89.9805C160.952 90.1465 160.111 90.2295 158.827 90.2295L163.11 102ZM177.936 99.626C177.936 101.209 177.15 102 175.578 102H167.759C166.198 102 165.418 101.209 165.418 99.626V93.4336H169.303V98.7295H174.051V93.6328L166.265 86.2617C165.7 85.7194 165.418 85.0277 165.418 84.1865V78.4092C165.418 76.8154 166.198 76.0186 167.759 76.0186H175.578C177.15 76.0186 177.936 76.8044 177.936 78.376V84.1865H174.051V79.2891H169.303V83.9873L177.089 91.3252C177.653 91.8564 177.936 92.5592 177.936 93.4336V99.626Z" fill="#E05E12"/>
</svg>
